<svg xmlns="http://www.w3.org/2000/svg" xmlns:xlink="http://www.w3.org/1999/xlink" width="1920" height="1555" viewBox="0 0 1920 1555"><defs><clipPath id="a"><rect width="1920" height="1555" transform="translate(-3035 2241)" fill="#fff" stroke="#707070" stroke-width="1"/></clipPath><clipPath id="b"><rect width="419" height="960" transform="translate(1501 595)" fill="none" stroke="#707070" stroke-width="1"/></clipPath><filter id="c" x="-27" y="-21" width="614" height="534" filterUnits="userSpaceOnUse"><feOffset dy="6" input="SourceAlpha"/><feGaussianBlur stdDeviation="9" result="d"/><feFlood flood-color="#528cf0" flood-opacity="0.322"/><feComposite operator="in" in2="d"/><feComposite in="SourceGraphic"/></filter><filter id="e" x="62.726" y="176" width="174" height="174" filterUnits="userSpaceOnUse"><feOffset dy="6" input="SourceAlpha"/><feGaussianBlur stdDeviation="9" result="f"/><feFlood flood-color="#ffa046" flood-opacity="0.322"/><feComposite operator="in" in2="f"/><feComposite in="SourceGraphic"/></filter></defs><g transform="translate(3035 -2241)" clip-path="url(#a)"><g transform="translate(22 33)"><rect width="1920" height="1555" transform="translate(-3057 2208)" fill="none"/><g transform="translate(-3057 2208)" clip-path="url(#b)"><g transform="translate(1683.304 797.15)"><path d="M611.982-23.181c7.048,76.614-93.776,248.842-151.389,338.327-57.307,89.179-71.1,95.614,37.694,199.2s340.472,304.31,350.585,338.94c10.113,34.936-201.035-96.227-334.343-137.292-133-41.065-188.47,7.968-255.278,22.371-67.114,14.4-145.566-5.823-184.793-57S35.538,548.052-12.269,451.212-156,242.516-177.142,113.192C-198.594-16.132-145.27-162.925-40.769-194.8c104.808-32.178,260.487,50.872,395.634,82.743C490.319-80.182,605.24-99.795,611.982-23.181" transform="translate(0)" fill="#f8cb50"/></g></g><g transform="translate(-3057.274 2208)"><g transform="matrix(1, 0, 0, 1, 0.27, 0)" filter="url(#c)"><path d="M-7012.727,2235c-4.661,172.138-336.593,175.149-430.582,242.961S-7572.726,2715-7572.726,2715V2235h560" transform="translate(7572.73 -2235)" fill="#7569de"/></g><g transform="matrix(1, 0, 0, 1, 0.27, 0)" filter="url(#e)"><circle cx="60" cy="60" r="60" transform="translate(89.73 197)" fill="#ffa046"/></g></g></g></g></svg>