<svg xmlns="http://www.w3.org/2000/svg" xmlns:xlink="http://www.w3.org/1999/xlink" width="900" height="600" viewBox="0 0 900 600"><defs><clipPath id="a"><rect width="900" height="600" rx="16" transform="translate(-10053 -4517)" fill="#fff" stroke="#707070" stroke-width="1"/></clipPath><radialGradient id="b" cx="1.278" cy="-0.23" r="1.34" gradientTransform="translate(2.063 -1.264) rotate(137.425)" gradientUnits="objectBoundingBox"><stop offset="0" stop-color="#7569de"/><stop offset="1" stop-color="#528cf0"/></radialGradient><radialGradient id="c" cx="-0.272" cy="1.268" r="1.351" gradientTransform="translate(-0.996 0.192) rotate(-46.036)" gradientUnits="objectBoundingBox"><stop offset="0" stop-color="#fe6845"/><stop offset="1" stop-color="#ffa046"/></radialGradient></defs><g transform="translate(10053 4517)" clip-path="url(#a)"><g transform="translate(-10053 -4517)"><rect width="900" height="600" fill="#fff"/><g transform="translate(900)"><path d="M0,324.5c-29.7.4-59.3.7-84-11.1-24.7-11.7-44.4-35.6-67.5-51-23.1-15.3-49.7-22.1-73.4-37.5-23.6-15.5-44.2-39.5-48.8-66.9-4.5-27.4,7.1-58.1,1.3-85s-28.9-50-52.1-73H0Z" fill="url(#b)"/></g><g transform="translate(0 600)"><path d="M0-324.5c29.8-.8,59.7-1.6,84,11.1,24.3,12.6,43.1,38.6,65,55.3s47,24.1,70.9,38.2,46.7,34.8,57.2,59.9,8.8,54.5,14.6,81.8C297.6-50.8,311-25.4,324.5,0H0Z" fill="url(#c)"/></g></g></g></svg>