<svg width="1920" height="327" viewBox="0 0 1920 327" fill="none" xmlns="http://www.w3.org/2000/svg">
<g filter="url(#filter0_d_170_2046)">
<path d="M1920.81 31.9999C1781.03 31.9999 1794.79 203.8 1677.52 203.8C1563.34 203.8 1570.81 135.507 1504.65 141.909C1418.95 150.203 1416.08 277.428 1349.92 277.428C1283.22 277.428 1302.97 211.269 1247.49 215.538C1203.09 218.952 1163.54 290.945 1149.31 326.514L1920.81 326.514L1920.81 31.9999Z" fill="#FEC248"/>
</g>
<g filter="url(#filter1_d_170_2046)">
<path d="M2067.36 58.5944C1940.11 58.5944 1952.64 214.985 1845.89 214.985C1741.96 214.985 1748.75 152.817 1688.53 158.646C1610.52 166.195 1607.91 282.01 1547.68 282.01C1486.96 282.01 1504.94 221.785 1454.43 225.67C1414.02 228.779 1378.01 294.314 1365.06 326.693L2067.36 326.693L2067.36 58.5944Z" fill="white"/>
</g>
<circle cx="262.941" cy="148.45" r="3.44985" transform="rotate(90 262.941 148.45)" fill="white"/>
<circle cx="240.041" cy="148.45" r="3.44985" transform="rotate(90 240.041 148.45)" fill="white"/>
<circle cx="217.141" cy="148.45" r="3.44985" transform="rotate(90 217.141 148.45)" fill="white"/>
<circle cx="194.241" cy="148.45" r="3.44985" transform="rotate(90 194.241 148.45)" fill="white"/>
<circle cx="171.342" cy="148.45" r="3.44985" transform="rotate(90 171.342 148.45)" fill="white"/>
<circle cx="148.442" cy="148.45" r="3.44985" transform="rotate(90 148.442 148.45)" fill="white"/>
<circle cx="262.941" cy="171.35" r="3.44985" transform="rotate(90 262.941 171.35)" fill="white"/>
<circle cx="240.041" cy="171.35" r="3.44985" transform="rotate(90 240.041 171.35)" fill="white"/>
<circle cx="217.141" cy="171.35" r="3.44985" transform="rotate(90 217.141 171.35)" fill="white"/>
<circle cx="194.241" cy="171.35" r="3.44985" transform="rotate(90 194.241 171.35)" fill="white"/>
<circle cx="171.342" cy="171.35" r="3.44985" transform="rotate(90 171.342 171.35)" fill="white"/>
<circle cx="148.442" cy="171.35" r="3.44985" transform="rotate(90 148.442 171.35)" fill="white"/>
<circle cx="262.941" cy="194.249" r="3.44985" transform="rotate(90 262.941 194.249)" fill="white"/>
<circle cx="240.041" cy="194.249" r="3.44985" transform="rotate(90 240.041 194.249)" fill="white"/>
<circle cx="217.141" cy="194.249" r="3.44985" transform="rotate(90 217.141 194.249)" fill="white"/>
<circle cx="194.241" cy="194.249" r="3.44985" transform="rotate(90 194.241 194.249)" fill="white"/>
<circle cx="171.342" cy="194.249" r="3.44985" transform="rotate(90 171.342 194.249)" fill="white"/>
<circle cx="148.442" cy="194.249" r="3.44985" transform="rotate(90 148.442 194.249)" fill="white"/>
<path d="M144.992 233.326L153.619 224.699L162.246 233.326L170.873 224.699L179.5 233.326L188.126 224.699L196.753 233.326L205.38 224.699L214.007 233.326L222.634 224.699L231.261 233.326L239.887 224.699L248.514 233.326" stroke="white" stroke-width="2"/>
<defs>
<filter id="filter0_d_170_2046" x="1117.31" y="0" width="835.499" height="358.514" filterUnits="userSpaceOnUse" color-interpolation-filters="sRGB">
<feFlood flood-opacity="0" result="BackgroundImageFix"/>
<feColorMatrix in="SourceAlpha" type="matrix" values="0 0 0 0 0 0 0 0 0 0 0 0 0 0 0 0 0 0 127 0" result="hardAlpha"/>
<feOffset/>
<feGaussianBlur stdDeviation="16"/>
<feComposite in2="hardAlpha" operator="out"/>
<feColorMatrix type="matrix" values="0 0 0 0 0 0 0 0 0 0 0 0 0 0 0 0 0 0 0.4 0"/>
<feBlend mode="normal" in2="BackgroundImageFix" result="effect1_dropShadow_170_2046"/>
<feBlend mode="normal" in="SourceGraphic" in2="effect1_dropShadow_170_2046" result="shape"/>
</filter>
<filter id="filter1_d_170_2046" x="1333.06" y="26.5945" width="766.301" height="332.098" filterUnits="userSpaceOnUse" color-interpolation-filters="sRGB">
<feFlood flood-opacity="0" result="BackgroundImageFix"/>
<feColorMatrix in="SourceAlpha" type="matrix" values="0 0 0 0 0 0 0 0 0 0 0 0 0 0 0 0 0 0 127 0" result="hardAlpha"/>
<feOffset/>
<feGaussianBlur stdDeviation="16"/>
<feComposite in2="hardAlpha" operator="out"/>
<feColorMatrix type="matrix" values="0 0 0 0 0 0 0 0 0 0 0 0 0 0 0 0 0 0 0.4 0"/>
<feBlend mode="normal" in2="BackgroundImageFix" result="effect1_dropShadow_170_2046"/>
<feBlend mode="normal" in="SourceGraphic" in2="effect1_dropShadow_170_2046" result="shape"/>
</filter>
</defs>
</svg>
