<svg xmlns="http://www.w3.org/2000/svg" width="48" height="48" viewBox="0 0 48 48"><path d="M0,0H48V48H0Z" fill="none"/><path d="M4,10V8A4,4,0,0,1,8,4h4" transform="translate(4 4)" fill="none" stroke="#ffa046" stroke-linecap="round" stroke-linejoin="round" stroke-width="2"/><path d="M4,17v2a4,4,0,0,0,4,4h4" transform="translate(4 17)" fill="none" stroke="#ffa046" stroke-linecap="round" stroke-linejoin="round" stroke-width="2"/><path d="M16,4h4a4,4,0,0,1,4,4v2" transform="translate(16 4)" fill="none" stroke="#ffa046" stroke-linecap="round" stroke-linejoin="round" stroke-width="2"/><path d="M16,23h4a4,4,0,0,0,4-4V17" transform="translate(16 17)" fill="none" stroke="#ffa046" stroke-linecap="round" stroke-linejoin="round" stroke-width="2"/><rect width="2" height="4" transform="translate(10 22)" fill="none" stroke="#ffa046" stroke-linecap="round" stroke-linejoin="round" stroke-width="2"/><line y2="4" transform="translate(20 22)" fill="none" stroke="#ffa046" stroke-linecap="round" stroke-linejoin="round" stroke-width="2"/><rect width="2" height="4" transform="translate(28 22)" fill="none" stroke="#ffa046" stroke-linecap="round" stroke-linejoin="round" stroke-width="2"/><line y2="4" transform="translate(38 22)" fill="none" stroke="#ffa046" stroke-linecap="round" stroke-linejoin="round" stroke-width="2"/></svg>