<svg xmlns="http://www.w3.org/2000/svg" width="48" height="48" viewBox="0 0 48 48"><path d="M6,15H36" transform="translate(6 15)" fill="none" stroke="currentcolor" stroke-linecap="round" stroke-linejoin="round" stroke-width="3.6"/><path d="M36,19H6" transform="translate(6 19)" fill="none" stroke="currentcolor" stroke-linecap="round" stroke-linejoin="round" stroke-width="3.6"/><path d="M15,11H27" transform="translate(15 11)" fill="none" stroke="currentcolor" stroke-linecap="round" stroke-linejoin="round" stroke-width="3.6"/><path d="M27,7H15" transform="translate(15 7)" fill="none" stroke="currentcolor" stroke-linecap="round" stroke-linejoin="round" stroke-width="3.6"/><path d="M9,12.5h2a2,2,0,1,1-2,2v-5a4,4,0,0,1,4-4" transform="translate(9 5.5)" fill="none" stroke="currentcolor" stroke-linecap="round" stroke-linejoin="round" stroke-width="3.6"/><path d="M3,12.5H5a2,2,0,1,1-2,2v-5a4,4,0,0,1,4-4" transform="translate(3 5.5)" fill="none" stroke="currentcolor" stroke-linecap="round" stroke-linejoin="round" stroke-width="3.6"/></svg>