<svg xmlns="http://www.w3.org/2000/svg" width="48" height="48" viewBox="0 0 48 48"><path d="M31,25h4a4,4,0,0,0,4-4V13a4,4,0,0,0-4-4H7a4,4,0,0,0-4,4v8a4,4,0,0,0,4,4h4" transform="translate(3 9)" fill="none" stroke="currentcolor" stroke-linecap="round" stroke-linejoin="round" stroke-width="3.6"/><path d="M27,15V7a4,4,0,0,0-4-4H11A4,4,0,0,0,7,7v8" transform="translate(7 3)" fill="none" stroke="currentcolor" stroke-linecap="round" stroke-linejoin="round" stroke-width="3.6"/><rect width="20" height="16" rx="2" transform="translate(14 26)" fill="none" stroke="currentcolor" stroke-linecap="round" stroke-linejoin="round" stroke-width="3.6"/></svg>