<svg viewBox="0 0 44 44" fill="black" xmlns="http://www.w3.org/2000/svg">
<path d="M28.05 25.4833C28.05 22.275 26.125 21.175 22.275 20.7168C19.525 20.35 18.975 19.6168 18.975 18.3333C18.975 17.0498 19.8917 16.225 21.725 16.225C23.375 16.225 24.2917 16.775 24.75 18.15C24.8417 18.425 25.1167 18.6083 25.3917 18.6083H26.8582C27.225 18.6083 27.5 18.3333 27.5 17.9668V17.875C27.1332 15.8583 25.4832 14.3 23.375 14.1168V11.9168C23.375 11.55 23.1 11.275 22.6417 11.1833H21.2667C20.9 11.1833 20.625 11.4583 20.5332 11.9168V14.025C17.7832 14.3918 16.0417 16.225 16.0417 18.5168C16.0417 21.5418 17.875 22.7333 21.725 23.1918C24.2917 23.65 25.1167 24.2 25.1167 25.6668C25.1167 27.1335 23.8332 28.1418 22.0917 28.1418C19.7082 28.1418 18.8832 27.1333 18.6082 25.7583C18.5167 25.3918 18.2417 25.2083 17.9667 25.2083H16.4082C16.0417 25.2083 15.7667 25.4833 15.7667 25.85V25.9418C16.1332 28.2333 17.6 29.8833 20.625 30.3418V32.5418C20.625 32.9083 20.9 33.1833 21.3582 33.275H22.7332C23.1 33.275 23.375 33 23.4667 32.5418V30.3418C26.2167 29.8833 28.05 27.9583 28.05 25.4833Z" />
<path d="M17.325 35.1083C10.175 32.5417 6.50828 24.5667 9.16676 17.5083C10.5418 13.6583 13.5668 10.725 17.325 9.35001C17.6918 9.16675 17.875 8.89175 17.875 8.43327V7.15001C17.875 6.78327 17.6918 6.50827 17.325 6.41675C17.2333 6.41675 17.05 6.41675 16.9583 6.50827C8.25002 9.25827 3.48328 18.5167 6.23328 27.225C7.88328 32.3583 11.825 36.3 16.9583 37.95C17.325 38.1333 17.6918 37.95 17.7833 37.5833C17.875 37.4917 17.875 37.4 17.875 37.2167V35.9333C17.875 35.6583 17.6 35.2917 17.325 35.1083ZM27.0418 6.50827C26.675 6.32501 26.3083 6.50827 26.2168 6.87501C26.125 6.96675 26.125 7.05827 26.125 7.24175V8.52501C26.125 8.89175 26.4 9.25827 26.675 9.44175C33.825 12.0083 37.4918 19.9833 34.8333 27.0417C33.4583 30.8917 30.4333 33.825 26.675 35.2C26.3083 35.3833 26.125 35.6583 26.125 36.1167V37.4C26.125 37.7667 26.3083 38.0417 26.675 38.1333C26.7668 38.1333 26.95 38.1333 27.0418 38.0417C35.75 35.2917 40.5168 26.0333 37.7668 17.325C36.1168 12.1 32.0833 8.15827 27.0418 6.50827Z" />
</svg>
