<svg xmlns="http://www.w3.org/2000/svg" width="48" height="48" viewBox="0 0 48 48"><g transform="translate(-5015 -8197)"><g transform="translate(5017.432 8199.1)"><path d="M26.877,16.457a3.565,3.565,0,0,0-3.223-1.787H20.08a3.584,3.584,0,1,0,0,7.158h3.574a3.584,3.584,0,1,1,0,7.158H20.08A3.565,3.565,0,0,1,16.857,27.2" transform="translate(-0.298 -0.252)" fill="none" stroke="currentcolor" stroke-linecap="round" stroke-linejoin="round" stroke-width="3.6"/><path d="M22,11v3.584M22,28.9v3.584" transform="translate(-0.431 -0.166)" fill="none" stroke="currentcolor" stroke-linecap="round" stroke-linejoin="round" stroke-width="3.6"/><path d="M18.219,39.253a17.989,17.989,0,0,1,0-35.353" transform="translate(0)" fill="none" stroke="currentcolor" stroke-linecap="round" stroke-linejoin="round" stroke-width="3.6"/><path d="M25.43,39.253a17.989,17.989,0,0,0,0-35.353" transform="translate(-0.512)" fill="none" stroke="currentcolor" stroke-linecap="round" stroke-linejoin="round" stroke-width="3.6"/></g></g></svg>