<svg xmlns="http://www.w3.org/2000/svg" width="80" height="80" viewBox="0 0 80 80"><path d="M0,0H80V80H0Z" fill="none"/><path d="M47.333,17.333v-10A3.333,3.333,0,0,0,44,4H10.667a6.667,6.667,0,1,0,0,13.333h40A3.333,3.333,0,0,1,54,20.667v10M54,44V54a3.333,3.333,0,0,1-3.333,3.333h-40A6.667,6.667,0,0,1,4,50.667v-40" transform="translate(9.333 9.333)" fill="none" stroke="#fafafa" stroke-linecap="round" stroke-linejoin="round" stroke-width="4"/><path d="M34,12V25.333H20.667a6.667,6.667,0,1,1,0-13.333H34" transform="translate(32.667 28)" fill="none" stroke="#fafafa" stroke-linecap="round" stroke-linejoin="round" stroke-width="4"/></svg>