<svg xmlns="http://www.w3.org/2000/svg" xmlns:xlink="http://www.w3.org/1999/xlink" width="491.252" height="800" viewBox="0 0 491.252 800"><defs><clipPath id="a"><rect width="491.25" height="800" transform="translate(0)" fill="#fff" stroke="#707070" stroke-width="1"/></clipPath><linearGradient id="b" x1="0.478" y1="0.489" x2="0.517" y2="1.492" gradientUnits="objectBoundingBox"><stop offset="0" stop-color="#528cf0"/><stop offset="1" stop-color="#7569de"/></linearGradient><linearGradient id="c" x1="0.831" y1="-0.289" x2="0.411" y2="0.5" gradientUnits="objectBoundingBox"><stop offset="0" stop-color="#ffa046"/><stop offset="1" stop-color="#f8cb50"/></linearGradient><linearGradient id="d" x1="-0.115" y1="1" x2="1.371" y2="0" xlink:href="#c"/><linearGradient id="e" x1="0.5" y1="0" x2="1.378" y2="2.459" xlink:href="#c"/></defs><g transform="translate(2405 2991)"><g transform="translate(-2405 -2991)" clip-path="url(#a)"><ellipse cx="496.885" cy="532.917" rx="496.885" ry="532.917" transform="matrix(0.875, -0.485, 0.485, 0.875, -530.471, 35.301)" fill="url(#b)"/></g><g transform="translate(-2405 -2991)"><rect width="450" height="800" fill="none"/><g transform="translate(23.165 3.884)"><g transform="translate(0 591.475)"><path d="M-50.444-155.872c11.667,10.833,17.5,27.542,20.542,44.792,3,17.208,3.25,34.917-4.625,47.417-7.833,12.458-23.792,19.75-40.167,25.542-16.333,5.75-33.083,10.083-48.208,6.167-15.167-3.875-28.667-15.958-36.208-30.667a66.534,66.534,0,0,1-5.083-47.208c4.167-15.125,14.083-27.958,26.25-38.667,12.125-10.75,26.5-19.417,42.458-21.25C-79.569-171.622-62.069-166.705-50.444-155.872Z" transform="translate(166.404 170.137)" fill="url(#c)"/></g><g transform="translate(379.171 246.698)"><path d="M-32.272-99.351c8.333,7.292,15.25,16.042,17.208,25.875,1.917,9.833-1.042,20.708-6.417,30.417S-34.605-24.81-44.147-21.393c-9.583,3.458-20.958,1.792-30.5-2.667a50.631,50.631,0,0,1-22.292-20.5c-5.083-8.75-7.542-19.042-6-28.792,1.542-9.708,7.083-18.917,14.875-26.292,7.75-7.417,17.75-13.042,27.667-12.958S-40.647-106.685-32.272-99.351Z" transform="translate(103.394 112.602)" fill="url(#d)"/></g><g transform="translate(15.043 319.552)"><path d="M-27.175-96.9c8.167,6.042,13.333,16.583,14.417,27.167,1.125,10.625-1.833,21.292-7.25,30.375-5.417,9.042-13.333,16.5-22.625,19.542-9.25,3.042-19.833,1.625-29.542-2-9.708-3.583-18.5-9.458-23-17.583-4.5-8.167-4.667-18.667-3.542-29.583s3.542-22.25,10.542-28.542c7.042-6.25,18.625-7.417,30.083-7.208C-46.675-104.523-35.384-102.94-27.175-96.9Z" transform="translate(99.301 104.753)" fill="url(#e)"/></g><g transform="translate(341.72 569.407)"><path d="M-15.7-53.684a23.146,23.146,0,0,1,7.625,14.25c.5,5.208-1.333,10.542-4.125,15.167A28.788,28.788,0,0,1-23.661-13.059c-4.958,2.542-11,3.542-16.333,1.875A19.615,19.615,0,0,1-51.911-22.267c-2-5.083-1.5-10.875-.417-16.458s2.75-11,6.375-14.958A20.474,20.474,0,0,1-31.119-60.1C-25.494-60.1-19.952-57.517-15.7-53.684Z" transform="translate(53.276 60.101)" fill="#ffa046"/></g></g></g></g></svg>