<svg xmlns="http://www.w3.org/2000/svg" width="48" height="48" viewBox="0 0 48 48"><g transform="translate(48 48) rotate(180)"><path d="M15,16H7a2,2,0,0,1-2-2V8A2,2,0,0,1,7,6h6a2,2,0,0,1,2,2V20q0,8-8,10" transform="translate(5 6)" fill="none" stroke="currentcolor" stroke-linecap="round" stroke-linejoin="round" stroke-width="3.6"/><path d="M24,16H16a2,2,0,0,1-2-2V8a2,2,0,0,1,2-2h6a2,2,0,0,1,2,2V20q0,8-8,10" transform="translate(14 6)" fill="none" stroke="currentcolor" stroke-linecap="round" stroke-linejoin="round" stroke-width="3.6"/></g></svg>