<svg xmlns="http://www.w3.org/2000/svg" width="40" height="40" viewBox="0 0 40 40"><path d="M0,0H40V40H0Z" fill="none"/><path d="M35.333,4.084a29.905,29.905,0,0,1-5,1.65c-1.868-2.108-4.638-2.225-7.3-1.228a6.555,6.555,0,0,0-4.367,6.228V12.4A15.654,15.654,0,0,1,5.333,5.734S-1.637,18.122,12,24.067C8.88,26.145,5.768,27.547,2,27.4c5.513,3,11.522,4.038,16.723,2.528a18.341,18.341,0,0,0,12.752-12.9A23.067,23.067,0,0,0,32.3,10.77c0-.415,2.517-4.62,3.03-6.688Z" transform="translate(1.333 2.6)" fill="none" stroke="#fafafa" stroke-linecap="round" stroke-linejoin="round" stroke-width="2"/></svg>