<svg xmlns="http://www.w3.org/2000/svg" xmlns:xlink="http://www.w3.org/1999/xlink" width="500" height="500" viewBox="0 0 500 500"><defs><linearGradient id="a" x1="0.5" x2="0.5" y2="1" gradientUnits="objectBoundingBox"><stop offset="0" stop-color="#ffa046"/><stop offset="1" stop-color="#fe6845"/></linearGradient><linearGradient id="b" x1="0.5" x2="0.5" y2="1" gradientUnits="objectBoundingBox"><stop offset="0" stop-color="#528cf0"/><stop offset="1" stop-color="#7569de"/></linearGradient><clipPath id="c"><path d="M167.437,93H419.422V593H167.437Zm0,0" transform="translate(-167.437 -93)" fill="url(#a)"/></clipPath><clipPath id="e"><path d="M112.527,93H364.511V593H112.527Zm0,0" transform="translate(-112.527 -93)" fill="url(#b)"/></clipPath></defs><g transform="translate(-9903 13712)"><rect width="500" height="500" transform="translate(9903 -13712)" fill="none"/><g transform="translate(-111 -423)"><g transform="translate(10210.266 -13289)" clip-path="url(#c)"><path d="M419.422,93.379V506.367L334.414,590.95,167.437,454.779V342.924L334.414,477.659V150.784Zm0,0" transform="translate(-167.437 -92.376)" fill="url(#a)"/></g><g transform="translate(10065 -13289)" clip-path="url(#e)"><path d="M112.527,590.784V177.806l84.925-84.584L364.511,229.466V341.321L197.452,206.514V533.461Zm0,0" transform="translate(-112.527 -92.634)" fill="url(#b)"/></g></g></g></svg>