<svg xmlns="http://www.w3.org/2000/svg" xmlns:xlink="http://www.w3.org/1999/xlink" width="1250" height="1004" viewBox="0 0 1250 1004"><defs><clipPath id="a"><path d="M167.437,93H425.469V605H167.437Zm0,0" transform="translate(-167.437 -93)" fill="#fafafa"/></clipPath><filter id="b" x="533.976" y="-28.974" width="330.031" height="581.514" filterUnits="userSpaceOnUse"><feOffset dy="6" input="SourceAlpha"/><feGaussianBlur stdDeviation="12" result="c"/><feFlood flood-opacity="0.078"/><feComposite operator="in" in2="c"/><feComposite in="SourceGraphic"/></filter><clipPath id="d"><path d="M112.527,93H370.559V605H112.527Zm0,0" transform="translate(-112.527 -93)" fill="#fafafa"/></clipPath><filter id="e" x="385.224" y="-29.396" width="330.031" height="581.503" filterUnits="userSpaceOnUse"><feOffset dy="6" input="SourceAlpha"/><feGaussianBlur stdDeviation="12" result="f"/><feFlood flood-opacity="0.078"/><feComposite operator="in" in2="f"/><feComposite in="SourceGraphic"/></filter><filter id="g" x="0" y="602" width="1250" height="402" filterUnits="userSpaceOnUse"><feOffset dy="6" input="SourceAlpha"/><feGaussianBlur stdDeviation="12" result="h"/><feFlood flood-opacity="0.078"/><feComposite operator="in" in2="h"/><feComposite in="SourceGraphic"/></filter></defs><g transform="translate(-7715 10986)"><g transform="translate(-1819 2726)"><rect width="512" height="512" transform="translate(9903 -13712)" fill="none"/><g transform="translate(9955.224 -13712)"><g transform="translate(148.752)" clip-path="url(#a)"><g transform="matrix(1, 0, 0, 1, -569.98, 0)" filter="url(#b)"><path d="M425.469,93.379v422.9l-87.048,86.614L167.437,463.453V348.913L338.422,486.882V152.162Zm0,0" transform="translate(402.54 -92.35)" fill="#fafafa"/></g></g><g transform="translate(0)" clip-path="url(#d)"><g transform="matrix(1, 0, 0, 1, -421.22, 0)" filter="url(#e)"><path d="M112.527,602.725V179.836L199.49,93.223,370.559,232.736v114.54L199.49,209.233V544.027Zm0,0" transform="translate(308.7 -92.62)" fill="#fafafa"/></g></g></g></g><g transform="matrix(1, 0, 0, 1, 7715, -10986)" filter="url(#g)"><text transform="translate(36 882)" fill="#fafafa" font-size="320" font-family="Josefin Sans" font-weight="600" letter-spacing="0.04em"><tspan x="0" y="0">Nalnda</tspan></text></g></g></svg>