<svg id="visual" viewBox="0 0 900 600" width="900" height="600" xmlns="http://www.w3.org/2000/svg"
    xmlns:xlink="http://www.w3.org/1999/xlink" version="1.1">
    <rect width="900" height="600" fill="#ffffff"></rect>
    <g>
        <g transform="translate(833 302)">
            <path
                d="M33.2 -10.7C37.9 3.6 33 21.2 21.3 29.8C9.6 38.5 -9 38.3 -21.2 29.4C-33.4 20.5 -39.3 2.9 -34.7 -11.3C-30.1 -25.5 -15 -36.3 -0.4 -36.2C14.3 -36.1 28.6 -25 33.2 -10.7Z"
                stroke="#FCAF3C" fill="none" stroke-width="5"></path>
        </g>
        <g transform="translate(470 209)">
            <path
                d="M29.2 -9.9C33.1 2.5 28.2 17.3 17.5 25.4C6.8 33.4 -9.8 34.8 -20 27.4C-30.1 20 -34 3.9 -29.6 -9.2C-25.2 -22.2 -12.6 -32.1 0 -32.1C12.7 -32.1 25.3 -22.2 29.2 -9.9Z"
                stroke="#FCAF3C" fill="none" stroke-width="5"></path>
        </g>
        <g transform="translate(642 546)">
            <path
                d="M31.5 -10.8C35.6 2.3 30 18 19.1 25.8C8.2 33.6 -8.1 33.5 -18.8 25.8C-29.6 18 -34.8 2.5 -30.7 -10.5C-26.6 -23.6 -13.3 -34.2 0.2 -34.2C13.7 -34.3 27.4 -23.8 31.5 -10.8Z"
                stroke="#FCAF3C" fill="none" stroke-width="5"></path>
        </g>
        <g transform="translate(606 353)">
            <path
                d="M34.8 -11.7C39.3 2.4 33.1 19.7 20.9 28.4C8.8 37.1 -9.2 37.3 -20.9 28.8C-32.5 20.3 -37.8 3.2 -33.2 -11.1C-28.7 -25.3 -14.3 -36.6 0.4 -36.8C15.2 -36.9 30.4 -25.8 34.8 -11.7Z"
                stroke="#FCAF3C" fill="none" stroke-width="5"></path>
        </g>
        <g transform="translate(832 88)">
            <path
                d="M21.3 -7C24.2 2 20.8 13 13.3 18.5C5.7 24 -5.9 24.1 -13.5 18.6C-21 13.1 -24.5 2 -21.6 -7C-18.7 -16 -9.3 -23 -0.1 -22.9C9.2 -22.9 18.4 -15.9 21.3 -7Z"
                stroke="#FCAF3C" fill="none" stroke-width="5"></path>
        </g>
        <g transform="translate(325 276)">
            <path
                d="M21.7 -7C24.6 1.7 20.9 12.7 13.2 18.3C5.5 24 -6.2 24.3 -13.5 18.9C-20.8 13.5 -23.8 2.4 -20.8 -6.5C-17.8 -15.4 -8.9 -22 0.3 -22.1C9.4 -22.2 18.9 -15.7 21.7 -7Z"
                stroke="#FCAF3C" fill="none" stroke-width="5"></path>
        </g>
        <g transform="translate(120 345)">
            <path
                d="M35.1 -11.8C39.4 1.8 32.5 18.6 20.3 27.2C8.1 35.9 -9.4 36.5 -21.4 28.1C-33.3 19.8 -39.7 2.4 -35.2 -11.5C-30.7 -25.3 -15.4 -35.6 0 -35.7C15.4 -35.7 30.8 -25.3 35.1 -11.8Z"
                stroke="#FCAF3C" fill="none" stroke-width="5"></path>
        </g>
        <g transform="translate(240 122)">
            <path
                d="M23.4 -7.8C26.5 2.1 22.7 14.1 14.6 19.9C6.5 25.8 -5.9 25.4 -14.3 19.4C-22.8 13.3 -27.4 1.5 -24.3 -8.3C-21.3 -18.1 -10.6 -25.9 -0.3 -25.8C10.1 -25.7 20.2 -17.8 23.4 -7.8Z"
                stroke="#FCAF3C" fill="none" stroke-width="5"></path>
        </g>
        <g transform="translate(334 166)">
            <path
                d="M28.8 -9.1C32.8 2.8 28.2 17.7 18.2 25C8.1 32.3 -7.4 31.9 -17.8 24.4C-28.1 16.9 -33.2 2.2 -29.4 -9.5C-25.6 -21.2 -12.8 -29.9 -0.2 -29.9C12.5 -29.8 24.9 -21 28.8 -9.1Z"
                stroke="#FCAF3C" fill="none" stroke-width="5"></path>
        </g>
    </g>
</svg>