<svg id="visual" viewBox="0 0 900 600" width="900" height="600" xmlns="http://www.w3.org/2000/svg" xmlns:xlink="http://www.w3.org/1999/xlink" version="1.1"><rect width="900" height="600" fill="#ffffff"></rect><g><g transform="translate(553 107)"><path d="M35.4 -11.8C40 2.8 33.9 20.5 21.3 29.7C8.8 38.9 -10.3 39.6 -22.4 30.8C-34.6 22 -39.9 3.7 -35 -11.3C-30.1 -26.2 -15 -37.7 0.2 -37.7C15.4 -37.8 30.8 -26.4 35.4 -11.8Z" stroke="#FCAF3C" fill="none" stroke-width="5"></path></g><g transform="translate(465 287)"><path d="M32.5 -10.4C36.5 2 30.5 17.9 19.2 26C7.9 34.1 -8.8 34.6 -19.9 26.7C-31 18.8 -36.7 2.5 -32.4 -10.1C-28.2 -22.7 -14.1 -31.6 0 -31.6C14.2 -31.6 28.4 -22.7 32.5 -10.4Z" stroke="#FCAF3C" fill="none" stroke-width="5"></path></g><g transform="translate(658 74)"><path d="M15.9 -5.3C17.9 1 15 8.7 9.4 12.7C3.9 16.6 -4.2 16.7 -9.5 12.9C-14.9 9 -17.5 1.2 -15.5 -5.1C-13.5 -11.4 -6.7 -16.2 0.1 -16.2C7 -16.3 13.9 -11.5 15.9 -5.3Z" stroke="#FCAF3C" fill="none" stroke-width="5"></path></g><g transform="translate(655 477)"><path d="M19.3 -5.9C21.9 1.8 18.9 11.8 12.1 16.7C5.3 21.7 -5.1 21.6 -12.1 16.5C-19 11.5 -22.5 1.6 -19.9 -6.2C-17.3 -13.9 -8.6 -19.5 -0.2 -19.4C8.3 -19.4 16.6 -13.7 19.3 -5.9Z" stroke="#FCAF3C" fill="none" stroke-width="5"></path></g><g transform="translate(177 528)"><path d="M33.4 -11.2C37.7 2.3 31.6 18.8 20.3 26.8C8.9 34.7 -7.8 34.2 -18.8 26.1C-29.9 18 -35.3 2.4 -31.2 -10.8C-27.1 -24 -13.6 -34.9 0.5 -35C14.6 -35.2 29.1 -24.7 33.4 -11.2Z" stroke="#FCAF3C" fill="none" stroke-width="5"></path></g><g transform="translate(706 383)"><path d="M31.8 -9.7C36.1 2.8 30.9 19 19.7 27.2C8.5 35.3 -8.7 35.4 -19.7 27.4C-30.7 19.3 -35.5 3.1 -31.2 -9.4C-26.9 -21.9 -13.4 -30.7 0.2 -30.7C13.8 -30.8 27.6 -22.1 31.8 -9.7Z" stroke="#FCAF3C" fill="none" stroke-width="5"></path></g><g transform="translate(72 255)"><path d="M30.4 -9.8C34.3 2.1 28.8 17.1 18.3 24.5C7.8 32 -7.7 32 -18 24.5C-28.3 17.1 -33.4 2.3 -29.5 -9.5C-25.7 -21.4 -12.8 -30.3 0.2 -30.3C13.3 -30.4 26.5 -21.7 30.4 -9.8Z" stroke="#FCAF3C" fill="none" stroke-width="5"></path></g><g transform="translate(765 136)"><path d="M11.8 -4C13.3 0.8 11.2 6.6 7.1 9.6C3 12.5 -3.1 12.6 -7 9.7C-11 6.8 -12.8 1 -11.3 -3.8C-9.8 -8.7 -4.9 -12.6 0.1 -12.6C5.2 -12.7 10.3 -8.9 11.8 -4Z" stroke="#FCAF3C" fill="none" stroke-width="5"></path></g><g transform="translate(248 84)"><path d="M28.2 -9.4C31.8 1.9 26.6 15.7 16.8 22.8C6.9 29.9 -7.7 30.3 -16.8 23.6C-26 16.8 -29.7 3 -26 -8.5C-22.3 -20 -11.1 -29.1 0.6 -29.2C12.3 -29.4 24.6 -20.7 28.2 -9.4Z" stroke="#FCAF3C" fill="none" stroke-width="5"></path></g><g transform="translate(635 291)"><path d="M4.9 -1.6C5.5 0.4 4.7 2.9 3 4.1C1.3 5.4 -1.4 5.4 -3 4.2C-4.7 3 -5.4 0.5 -4.7 -1.5C-4 -3.5 -2 -5.1 0 -5.1C2.1 -5.1 4.2 -3.6 4.9 -1.6Z" stroke="#FCAF3C" fill="none" stroke-width="5"></path></g><g transform="translate(317 496)"><path d="M24.4 -8.4C27.6 1.7 23.2 13.8 14.8 19.7C6.4 25.7 -6 25.5 -14.3 19.5C-22.7 13.5 -27 1.7 -23.9 -8.3C-20.8 -18.3 -10.4 -26.5 0.1 -26.5C10.7 -26.5 21.3 -18.5 24.4 -8.4Z" stroke="#FCAF3C" fill="none" stroke-width="5"></path></g><g transform="translate(110 61)"><path d="M17.7 -5.8C20.1 1.6 17.2 10.7 10.9 15.4C4.6 20.1 -5.2 20.3 -11.7 15.7C-18.1 11.1 -21.3 1.6 -18.8 -6C-16.3 -13.7 -8.2 -19.3 -0.3 -19.3C7.7 -19.2 15.3 -13.3 17.7 -5.8Z" stroke="#FCAF3C" fill="none" stroke-width="5"></path></g><g transform="translate(341 256)"><path d="M14.5 -4.4C16.4 1.2 13.9 8.5 9 12C4 15.5 -3.4 15.2 -8.4 11.6C-13.3 8 -15.8 1 -14 -4.4C-12.2 -9.9 -6.1 -13.8 0.1 -13.9C6.3 -13.9 12.5 -10 14.5 -4.4Z" stroke="#FCAF3C" fill="none" stroke-width="5"></path></g><g transform="translate(822 461)"><path d="M23.5 -7.9C26.6 1.9 22.6 13.7 14.3 19.8C6 25.8 -6.6 26.1 -14.4 20.3C-22.2 14.5 -25.3 2.7 -22.1 -7.3C-18.9 -17.2 -9.4 -25.3 0.4 -25.4C10.2 -25.5 20.4 -17.7 23.5 -7.9Z" stroke="#FCAF3C" fill="none" stroke-width="5"></path></g><g transform="translate(534 509)"><path d="M7.2 -2.4C8 0.4 6.6 3.8 4.1 5.6C1.6 7.4 -2 7.5 -4.3 5.9C-6.6 4.2 -7.7 0.7 -6.8 -2.2C-5.8 -5 -2.9 -7.2 0.1 -7.3C3.1 -7.3 6.3 -5.2 7.2 -2.4Z" stroke="#FCAF3C" fill="none" stroke-width="5"></path></g><g transform="translate(447 420)"><path d="M5.2 -1.7C5.9 0.5 5.1 3.2 3.3 4.6C1.4 6 -1.5 6 -3.4 4.6C-5.4 3.2 -6.3 0.4 -5.6 -1.9C-4.9 -4.1 -2.4 -5.9 -0.1 -5.9C2.2 -5.9 4.5 -4 5.2 -1.7Z" stroke="#FCAF3C" fill="none" stroke-width="5"></path></g><g transform="translate(216 388)"><path d="M8.7 -2.7C9.9 1 8.7 5.6 5.5 8C2.4 10.3 -2.6 10.4 -5.8 8C-9.1 5.7 -10.5 0.9 -9.2 -2.8C-8 -6.5 -4 -9.1 -0.1 -9.1C3.7 -9 7.4 -6.3 8.7 -2.7Z" stroke="#FCAF3C" fill="none" stroke-width="5"></path></g><g transform="translate(190 193)"><path d="M33.7 -11.4C38 2.2 31.9 18.8 20.1 27.2C8.4 35.7 -8.9 35.9 -20.2 27.7C-31.5 19.5 -36.8 2.9 -32.4 -10.8C-28 -24.5 -14 -35.4 0.4 -35.5C14.7 -35.6 29.5 -25 33.7 -11.4Z" stroke="#FCAF3C" fill="none" stroke-width="5"></path></g><g transform="translate(827 358)"><path d="M27.5 -9.1C31.2 2.5 26.7 16.6 16.9 23.8C7.1 31.1 -8.1 31.5 -17.6 24.5C-27.2 17.5 -31.1 3.1 -27.2 -8.8C-23.3 -20.6 -11.7 -29.9 0.1 -29.9C11.9 -29.9 23.8 -20.8 27.5 -9.1Z" stroke="#FCAF3C" fill="none" stroke-width="5"></path></g><g transform="translate(112 374)"><path d="M32.6 -10.4C36.9 2.7 31.4 19.2 20.3 27C9.2 34.9 -7.5 34.1 -18.6 26C-29.6 17.9 -35 2.4 -31 -10.4C-27 -23.1 -13.5 -33.1 0.3 -33.2C14.1 -33.3 28.3 -23.5 32.6 -10.4Z" stroke="#FCAF3C" fill="none" stroke-width="5"></path></g><g transform="translate(737 268)"><path d="M18.5 -6.5C20.7 0.9 17.1 9.8 10.7 14.4C4.2 19.1 -5.2 19.6 -11.2 15.2C-17.3 10.9 -20 1.8 -17.6 -5.9C-15.2 -13.6 -7.6 -19.7 0.3 -19.8C8.1 -19.9 16.2 -13.9 18.5 -6.5Z" stroke="#FCAF3C" fill="none" stroke-width="5"></path></g><g transform="translate(413 152)"><path d="M15.7 -5.3C17.8 1.3 15.1 9.3 9.8 13.1C4.4 17 -3.8 16.7 -9.4 12.7C-15.1 8.6 -18.2 0.8 -16.2 -5.7C-14.2 -12.2 -7.1 -17.4 -0.2 -17.4C6.8 -17.3 13.6 -12 15.7 -5.3Z" stroke="#FCAF3C" fill="none" stroke-width="5"></path></g><g transform="translate(555 222)"><path d="M9.9 -3.4C11.1 0.6 9.2 5.3 5.8 7.8C2.4 10.2 -2.6 10.4 -5.9 8C-9.2 5.7 -10.7 0.8 -9.4 -3.2C-8.2 -7.2 -4.1 -10.4 0.1 -10.4C4.3 -10.5 8.6 -7.3 9.9 -3.4Z" stroke="#FCAF3C" fill="none" stroke-width="5"></path></g><g transform="translate(745 545)"><path d="M21 -6.9C23.8 1.8 20.3 12.5 13.1 17.7C5.8 23 -5.3 22.7 -12.9 17.3C-20.5 11.9 -24.7 1.3 -21.9 -7.4C-19.2 -16 -9.6 -22.7 -0.3 -22.6C9.1 -22.6 18.2 -15.7 21 -6.9Z" stroke="#FCAF3C" fill="none" stroke-width="5"></path></g><g transform="translate(354 59)"><path d="M7.8 -2.6C8.9 0.7 7.6 4.7 4.9 6.6C2.2 8.5 -1.9 8.3 -4.5 6.4C-7.2 4.4 -8.5 0.6 -7.6 -2.6C-6.6 -5.7 -3.3 -8.3 0.1 -8.3C3.4 -8.3 6.8 -5.8 7.8 -2.6Z" stroke="#FCAF3C" fill="none" stroke-width="5"></path></g><g transform="translate(557 395)"><path d="M27.3 -9.4C30.7 1.6 25.6 14.9 16.1 21.7C6.5 28.5 -7.4 28.9 -16.9 22.2C-26.4 15.6 -31.5 1.8 -27.9 -9.4C-24.4 -20.6 -12.2 -29.3 -0.1 -29.2C11.9 -29.2 23.9 -20.4 27.3 -9.4Z" stroke="#FCAF3C" fill="none" stroke-width="5"></path></g><g transform="translate(356 358)"><path d="M11.4 -3.4C13 1.3 11.4 7.4 7.5 10.3C3.5 13.2 -2.8 12.9 -7 9.8C-11.2 6.8 -13.3 0.9 -11.8 -3.7C-10.2 -8.4 -5.1 -11.8 -0.1 -11.7C4.9 -11.7 9.8 -8.2 11.4 -3.4Z" stroke="#FCAF3C" fill="none" stroke-width="5"></path></g><g transform="translate(416 538)"><path d="M27.6 -9C31.3 2.4 26.7 16.4 17 23.6C7.3 30.7 -7.6 30.8 -17.8 23.6C-28 16.5 -33.5 1.9 -29.7 -9.5C-26 -21 -13 -29.3 -0.5 -29.1C12 -28.9 23.9 -20.3 27.6 -9Z" stroke="#FCAF3C" fill="none" stroke-width="5"></path></g><g transform="translate(832 228)"><path d="M35.5 -11.7C40.1 2.5 33.7 20.1 21.4 28.9C9.2 37.6 -9 37.6 -21 28.9C-32.9 20.2 -38.6 2.9 -34 -11.2C-29.5 -25.4 -14.7 -36.4 0.4 -36.5C15.5 -36.6 30.9 -25.9 35.5 -11.7Z" stroke="#FCAF3C" fill="none" stroke-width="5"></path></g><g transform="translate(71 519)"><path d="M30.2 -10C34.2 2.6 29.2 17.9 18.2 26C7.3 34.2 -9.5 35.2 -20.3 27.5C-31.2 19.7 -36 3.2 -31.7 -9.9C-27.3 -23 -13.6 -32.7 -0.3 -32.6C13.1 -32.6 26.2 -22.7 30.2 -10Z" stroke="#FCAF3C" fill="none" stroke-width="5"></path></g><g transform="translate(848 56)"><path d="M15.1 -4.9C17.2 1.5 14.9 9.4 9.5 13.4C4 17.4 -4.4 17.6 -9.9 13.6C-15.4 9.6 -17.9 1.5 -15.8 -5C-13.6 -11.5 -6.8 -16.4 -0.1 -16.3C6.5 -16.3 13.1 -11.3 15.1 -4.9Z" stroke="#FCAF3C" fill="none" stroke-width="5"></path></g><g transform="translate(665 178)"><path d="M19.3 -6.5C21.9 1.5 18.5 11.1 11.6 16.2C4.7 21.3 -5.7 21.8 -12.6 16.9C-19.5 12 -22.9 1.7 -20.2 -6.4C-17.5 -14.6 -8.8 -20.7 -0.2 -20.6C8.4 -20.6 16.8 -14.4 19.3 -6.5Z" stroke="#FCAF3C" fill="none" stroke-width="5"></path></g></g></svg>