<svg xmlns="http://www.w3.org/2000/svg" xmlns:xlink="http://www.w3.org/1999/xlink" width="1024" height="1024" viewBox="0 0 1024 1024"><defs><linearGradient id="a" x1="0.5" x2="0.5" y2="1" gradientUnits="objectBoundingBox"><stop offset="0" stop-color="#ffa046"/><stop offset="1" stop-color="#fe6845"/></linearGradient><linearGradient id="b" x1="0.5" x2="0.5" y2="1" gradientUnits="objectBoundingBox"><stop offset="0" stop-color="#528cf0"/><stop offset="1" stop-color="#7569de"/></linearGradient><clipPath id="c"><path d="M167.438,93H530.295V813H167.438Zm0,0" transform="translate(-167.438 -93)" fill="url(#a)"/></clipPath><clipPath id="e"><path d="M112.527,93H475.384V813H112.527Zm0,0" transform="translate(-112.527 -93)" fill="url(#b)"/></clipPath></defs><g transform="translate(-10988 13710)"><rect width="1024" height="1024" transform="translate(10988 -13710)" fill="none"/><g transform="translate(11140 -13558)"><rect width="720" height="720" fill="none"/><g transform="translate(73.439)"><g transform="translate(209.182)" clip-path="url(#c)"><path d="M530.295,93.379v594.7l-122.411,121.8L167.438,613.8V452.724L407.884,646.742v-470.7Zm0,0" transform="translate(-167.438 -91.935)" fill="url(#a)"/></g><g transform="translate(0)" clip-path="url(#e)"><path d="M112.527,809.711V215.023l122.292-121.8,240.565,196.19V450.485L234.819,256.363v470.8Zm0,0" transform="translate(-112.527 -92.374)" fill="url(#b)"/></g></g></g></g></svg>